<svg width="600" height="300" viewBox="0 0 600 300" fill="none" xmlns="http://www.w3.org/2000/svg">
  <!-- YouTube Logo -->
  <rect x="100" y="100" width="150" height="100" rx="20" fill="#FF0000"/>
  <polygon points="160,125 160,175 190,150" fill="white"/>
  
  <!-- Arrow -->
  <path d="M270 150 L330 150" stroke="#333" stroke-width="4"/>
  <polygon points="330,140 350,150 330,160" fill="#333"/>
  
  <!-- Resume -->
  <rect x="370" y="80" width="130" height="160" rx="5" fill="#f5f5f5" stroke="#333" stroke-width="2"/>
  <line x1="390" y1="110" x2="480" y2="110" stroke="#333" stroke-width="2"/>
  <line x1="390" y1="130" x2="480" y2="130" stroke="#333" stroke-width="2"/>
  <line x1="390" y1="150" x2="480" y2="150" stroke="#333" stroke-width="2"/>
  <line x1="390" y1="170" x2="480" y2="170" stroke="#333" stroke-width="2"/>
  <line x1="390" y1="190" x2="480" y2="190" stroke="#333" stroke-width="2"/>
  
  <!-- Data Visualization -->
  <rect x="400" y="120" width="10" height="40" fill="#4CAF50"/>
  <rect x="420" y="100" width="10" height="60" fill="#2196F3"/><boltAction type="file" filePath="public/hero-image.svg">
<svg width="600" height="300" viewBox="0 0 600 300" fill="none" xmlns="http://www.w3.org/2000/svg">
  <!-- YouTube Logo -->
  <rect x="100" y="100" width="150" height="100" rx="20" fill="#FF0000"/>
  <polygon points="160,125 160,175 190,150" fill="white"/>
  
  <!-- Arrow -->
  <path d="M270 150 L330 150" stroke="#333" stroke-width="4"/>
  <polygon points="330,140 350,150 330,160" fill="#333"/>
  
  <!-- Resume -->
  <rect x="370" y="80" width="130" height="160" rx="5" fill="#f5f5f5" stroke="#333" stroke-width="2"/>
  <line x1="390" y1="110" x2="480" y2="110" stroke="#333" stroke-width="2"/>
  <line x1="390" y1="130" x2="480" y2="130" stroke="#333" stroke-width="2"/>
  <line x1="390" y1="150" x2="480" y2="150" stroke="#333" stroke-width="2"/>
  <line x1="390" y1="170" x2="480" y2="170" stroke="#333" stroke-width="2"/>
  <line x1="390" y1="190" x2="480" y2="190" stroke="#333" stroke-width="2"/>
  
  <!-- Data Visualization -->
  <rect x="400" y="120" width="10" height="40" fill="#4CAF50"/>
  <rect x="420" y="100" width="10" height="60" fill="#2196F3"/>
  <rect x="440" y="130" width="10" height="30" fill="#FFC107"/>
  <rect x="460" y="90" width="10" height="70" fill="#9C27B0"/>
  
  <!-- Skills Badges -->
  <circle cx="400" y="210" r="8" fill="#E91E63"/>
  <circle cx="430" y="210" r="8" fill="#3F51B5"/>
  <circle cx="460" y="210" r="8" fill="#009688"/>
</svg>
